<?xml version="1.0" encoding="utf-8"?>
<!-- Generator: Adobe Illustrator 25.0.0, SVG Export Plug-In . SVG Version: 6.00 Build 0)  -->
<svg version="1.1" id="Layer_1" xmlns="http://www.w3.org/2000/svg" xmlns:xlink="http://www.w3.org/1999/xlink" x="0px" y="0px"
	 viewBox="0 0 48.8 52.4" style="enable-background:new 0 0 48.8 52.4;" xml:space="preserve">
<style type="text/css">
	.st0{fill-opacity:0;stroke:#7FFF00;stroke-width:0.24;}
	.st1{fill-opacity:0;stroke:#FFFFFF;stroke-width:0.24;}
</style>
<path class="st0" d="M43.3,26c0.2,1.8-1.7,4.1-5.2,5.8c-3.6,1.7-8.8,2.7-13.1,2.9c-4.4,0.2-9.7-0.4-13.3-1.7
	c-3.7-1.3-5.8-3.4-5.7-5.3c-0.2-1.8,1.7-4.1,5.2-5.8c3.6-1.7,8.8-2.7,13.1-2.9c4.4-0.2,9.7,0.4,13.3,1.7C41.3,22,43.4,24.1,43.3,26
	c0.2,1.8-1.7,4.1-5.2,5.8c-3.6,1.7-8.8,2.7-13.1,2.9c-4.4,0.2-9.7-0.4-13.3-1.7c-3.7-1.3-5.8-3.4-5.7-5.3c-0.2-1.8,1.7-4.1,5.2-5.8
	c3.6-1.7,8.8-2.7,13.1-2.9c4.4-0.2,9.7,0.4,13.3,1.7C41.3,22,43.4,24.1,43.3,26z"/>
<path class="st1" d="M43.3,26.8c0.1-4.4-1.9-9.6-5.5-13.2C34.2,9.9,29,7.9,24.6,8c-4.4-0.1-9.6,1.9-13.2,5.5
	c-3.6,3.6-5.6,8.9-5.5,13.2c-0.1,4.4,1.9,9.6,5.5,13.2c3.6,3.6,8.9,5.6,13.2,5.5c4.4,0.1,9.6-1.9,13.2-5.5
	C41.5,36.4,43.5,31.1,43.3,26.8c0.1-4.4-1.9-9.6-5.5-13.2C34.2,9.9,29,7.9,24.6,8c-4.4-0.1-9.6,1.9-13.2,5.5
	c-3.6,3.6-5.6,8.9-5.5,13.2c-0.1,4.4,1.9,9.6,5.5,13.2c3.6,3.6,8.9,5.6,13.2,5.5c4.4,0.1,9.6-1.9,13.2-5.5
	C41.5,36.4,43.5,31.1,43.3,26.8z"/>
</svg>
