<?xml version="1.0" encoding="utf-8"?>
<!-- Generator: Adobe Illustrator 25.0.0, SVG Export Plug-In . SVG Version: 6.00 Build 0)  -->
<svg version="1.1" id="Layer_1" xmlns="http://www.w3.org/2000/svg" xmlns:xlink="http://www.w3.org/1999/xlink" x="0px" y="0px"
	 viewBox="0 0 75.9 193.4" style="enable-background:new 0 0 75.9 193.4;" xml:space="preserve">
<style type="text/css">
	.st0{fill-opacity:0;stroke:#FF00FF;stroke-width:0.24;}
	.st1{fill-opacity:0;stroke:#00FFFF;stroke-width:0.24;}
	.st2{fill-opacity:0;stroke:#FFFFFF;stroke-width:0.24;}
</style>
<path class="st0" d="M15.4,140.1c-0.2,2.8,2.6,6.2,7.8,8.5c5.1,2.3,12.6,3.6,18.7,3.5c6.2,0.1,13.6-1.2,18.7-3.5
	c5.1-2.3,7.9-5.7,7.8-8.5c0.2-2.8-2.6-6.2-7.8-8.5c-5.1-2.3-12.6-3.6-18.7-3.5c-6.2-0.1-13.6,1.2-18.7,3.5
	C18.1,134,15.3,137.3,15.4,140.1c-0.2,2.8,2.6,6.2,7.8,8.5c5.1,2.3,12.6,3.6,18.7,3.5c6.2,0.1,13.6-1.2,18.7-3.5
	c5.1-2.3,7.9-5.7,7.8-8.5c0.2-2.8-2.6-6.2-7.8-8.5c-5.1-2.3-12.6-3.6-18.7-3.5c-6.2-0.1-13.6,1.2-18.7,3.5
	C18.1,134,15.3,137.3,15.4,140.1z"/>
<path class="st1" d="M66.7,55.3c0.2,1.7-2.9,3.8-8.5,5.3c-5.6,1.4-13.7,2.2-20.5,2.2c-6.7,0-14.9-0.7-20.5-2.2
	c-5.6-1.4-8.7-3.5-8.5-5.3c-0.2-1.7,2.9-3.8,8.5-5.3c5.6-1.4,13.7-2.2,20.5-2.2c6.7,0,14.9,0.7,20.5,2.2
	C63.8,51.4,66.9,53.5,66.7,55.3c0.2,1.7-2.9,3.8-8.5,5.3c-5.6,1.4-13.7,2.2-20.5,2.2c-6.7,0-14.9-0.7-20.5-2.2
	c-5.6-1.4-8.7-3.5-8.5-5.3c-0.2-1.7,2.9-3.8,8.5-5.3c5.6-1.4,13.7-2.2,20.5-2.2c6.7,0,14.9,0.7,20.5,2.2
	C63.8,51.4,66.9,53.5,66.7,55.3z"/>
<path class="st2" d="M23.5,14c-0.1,4.9-1.3,6.6-2.1,7.8"/>
<path class="st2" d="M17.9,166.6c2.5,9.9,7.4,15.5,12.8,17.7c5.9,2.3,12.4,0.5,16.4-1.5c4-2,5.6-4.2,8.5-13.4"/>
<path class="st2" d="M12.9,15.5c3.2-2.2,4.7-2.8,5.8-3c1.1-0.2,1.8,0.1,2.5,0.5c0.7,0.4,1.4,0.9,2.4,0.9"/>
<path class="st2" d="M41,21.5c-0.2-1.8,0.5-2.6,1.3-3c0.8-0.4,1.8-0.5,2.6-0.3c0.8,0.2,1.5,0.6,1.8,1.3c0.3,0.7,0.1,1.7-0.3,2.1"/>
<path class="st2" d="M52.7,31.7l-2.6,0.4"/>
<path class="st2" d="M62.6,42.1c-0.2,0.2-0.6,0.3-1,0.3l-1.1-0.2l-0.6-0.6l-0.1-0.5"/>
<path class="st2" d="M52.7,31.7l-2.6,0.4"/>
<path class="st2" d="M38.2,38.2c-0.3-8.9-0.1-13.1,0.4-15.5c0.5-2.4,1.3-3.1,1.7-4.2c0.4-1,0.2-2.4-0.2-3.7
	c-0.5-1.3-1.4-2.5-2.9-3.4c-1.5-0.9-3.5-1.5-5-1.3c-1.4,0.3-2.2,1.4-2.6,2.9c-0.4,1.5-0.5,3.3-0.6,4.9l-0.2,4.4l-0.2,5.3
	c-0.2,1.9-0.4,3.9-0.4,6.2c0,2.3,0.4,5.1,0,6"/>
<path class="st2" d="M28.3,35.4c-1.7,0.5-2.6,0.9-2.6,1.3"/>
<path class="st2" d="M12.9,15.5c3.2-2.2,4.7-2.8,5.8-3c1.1-0.2,1.8,0.1,2.5,0.5c0.7,0.4,1.4,0.9,2.4,0.9"/>
<path class="st2" d="M41.9,21.7c1.8,0.1,3.9-0.1,4.4-0.5"/>
<path class="st2" d="M41,21.5c-0.2-1.8,0.5-2.6,1.3-3c0.8-0.4,1.8-0.5,2.6-0.3c0.8,0.2,1.5,0.6,1.8,1.3c0.3,0.7,0.1,1.7-0.3,2.1"/>
<path class="st2" d="M23.5,14c-0.1,4.9-1.3,6.6-2.1,7.8"/>
<path class="st2" d="M17.9,166.6c2.5,9.9,7.4,15.5,12.8,17.7c5.9,2.3,12.4,0.5,16.4-1.5c4-2,5.6-4.2,8.5-13.4"/>
<path class="st2" d="M26,39c-0.3-2.3-0.3-2.8-0.2-3.6l0.8-2.9l1.1-3.3l0.8-2.6c0.2-0.9,0.2-2.1,0-3.6c-0.2-1.5-0.6-3.4-1.3-5.4
	c-0.7-2-1.8-4.2-2.6-5.6c-0.8-1.4-1.5-1.9-2.5-2.2c-1-0.3-2.3-0.3-3.7-0.1c-1.3,0.3-2.6,0.8-4.3,2s-3.8,3-4.9,6s-1.2,7.2-1,10.6
	c0.2,3.4,0.6,6.1,0.9,8.1c0.3,2,0.5,3.2,0.5,5c0,1.9-0.2,4.3-0.5,7c-0.3,2.7-0.7,5.5-0.4,10c0.3,4.4,1.3,10.4,3,18.1
	c1.6,7.7,3.9,17,5,25.9c1.1,8.9,1.1,17.3,0.7,23.6c-0.4,6.3-1.2,10.3-2.1,13.5c-0.9,3.2-1.8,5.5-1.5,9.3c0.3,3.9,1.7,9.3,2.9,14
	l1,3.7"/>
<path class="st2" d="M55.6,169.3c0.4-6.1,1.7-8.3,2.9-10.3l3.8-5.5c1.3-1.7,2.5-3.4,3.7-5.4c1.2-2,2.2-4.4,2.4-8
	c0.2-3.6-0.6-8.3-1.1-12c-0.5-3.6-0.7-6.2-0.9-8.6l-0.6-7.8l-1.2-10.5c-0.4-4-0.5-8.3,0-12.9c0.6-4.6,1.8-9.5,2.4-14.9
	c0.5-5.4,0.3-11.4-0.1-16c-0.4-4.6-1-7.7-1.7-10.2c-0.7-2.4-1.4-4.2-1.9-5.5c-0.5-1.3-0.9-2.2-1.7-2.7c-0.9-0.5-2.2-0.5-3.4,0.4"/>
<path class="st2" d="M49.6,32.3c-0.5-0.9-0.4-1.4,0.2-1.8c0.6-0.5,1.6-0.9,2.5-1c0.8-0.1,1.4,0,1.7,0.3c0.3,0.3,0.3,0.9-0.3,1.9"/>
<path class="st2" d="M32.7,15.6c2.4,0.4,2.7,0.2,3.6-0.2"/>
<path class="st2" d="M21.4,21.8c-3.1,0.6-5,0.8-6.2,0.8c-1.2,0-1.6,0-1.9-0.3c-0.3-0.3-0.4-0.7-0.4-1.2l0-2.1c0-0.9,0.1-2-0.1-3.5"
	/>
<path class="st2" d="M31.8,15.2c-0.4-1.6,0.8-2.3,1.9-2.6c1.1-0.3,2.2-0.2,3,0.2c0.8,0.3,1.3,0.9,1.3,1.4c0,0.5-0.6,1-0.9,1.4"/>
<path class="st2" d="M49.6,32.3c-0.5-0.9-0.4-1.4,0.2-1.8c0.6-0.5,1.6-0.9,2.5-1c0.8-0.1,1.4,0,1.7,0.3c0.3,0.3,0.3,0.9-0.3,1.9"/>
<path class="st2" d="M41.9,21.7c1.8,0.1,3.9-0.1,4.4-0.5"/>
<path class="st2" d="M59.9,40.6c1.6,1,2.7,1.3,3.4,1.1"/>
<path class="st2" d="M59.7,57.4c-3.1-3.3-3.2-4.7-3.2-5.9l0.4-3.7l0.5-3.6l0.5-2.7l0.3-2.3c0-0.9,0-2.1-0.3-3.4
	c-0.3-1.3-0.9-2.6-1.4-3.7c-0.5-1-1-1.7-1.5-2.3c-0.6-0.6-1.2-1.1-2.5-1.4c-1.3-0.3-3.1-0.4-4.5,0.9"/>
<path class="st2" d="M32.7,15.6c2.4,0.4,2.7,0.2,3.6-0.2"/>
<path class="st2" d="M48.4,44.6c-1.4-3.3-1.2-5.2-1-6.5l0.4-3.1l0-2.2l0-2.3l0.2-1.7l0.4-2.9c0.2-1.2,0.4-2.7,0.3-4
	s-0.3-2.6-1.2-3.4c-0.8-0.8-2.3-1.3-3.4-1.4c-1.2-0.1-2.1,0.3-2.9,1.2c-0.8,0.9-1.6,2.3-2,3.7c-0.4,1.5-0.5,3-0.5,4.5l0.1,4.7
	l-0.6,7"/>
<path class="st2" d="M48.4,44.6c-1.4-3.3-1.2-5.2-1-6.5l0.4-3.1l0-2.2l0-2.3l0.2-1.7l0.4-2.9c0.2-1.2,0.4-2.7,0.3-4
	s-0.3-2.6-1.2-3.4c-0.8-0.8-2.3-1.3-3.4-1.4c-1.2-0.1-2.1,0.3-2.9,1.2c-0.8,0.9-1.6,2.3-2,3.7c-0.4,1.5-0.5,3-0.5,4.5l0.1,4.7
	l-0.6,7"/>
<path class="st2" d="M62.6,42.1c-0.2,0.2-0.6,0.3-1,0.3l-1.1-0.2l-0.6-0.6l-0.1-0.5"/>
<path class="st2" d="M59.9,40.6c1.6,1,2.7,1.3,3.4,1.1"/>
<path class="st2" d="M31.8,15.2c-0.4-1.6,0.8-2.3,1.9-2.6c1.1-0.3,2.2-0.2,3,0.2c0.8,0.3,1.3,0.9,1.3,1.4c0,0.5-0.6,1-0.9,1.4"/>
<path class="st2" d="M21.4,21.8c-3.1,0.6-5,0.8-6.2,0.8c-1.2,0-1.6,0-1.9-0.3c-0.3-0.3-0.4-0.7-0.4-1.2l0-2.1c0-0.9,0.1-2-0.1-3.5"
	/>
<path class="st2" d="M26,39c-0.3-2.3-0.3-2.8-0.2-3.6l0.8-2.9l1.1-3.3l0.8-2.6c0.2-0.9,0.2-2.1,0-3.6c-0.2-1.5-0.6-3.4-1.3-5.4
	c-0.7-2-1.8-4.2-2.6-5.6c-0.8-1.4-1.5-1.9-2.5-2.2c-1-0.3-2.3-0.3-3.7-0.1c-1.3,0.3-2.6,0.8-4.3,2s-3.8,3-4.9,6s-1.2,7.2-1,10.6
	c0.2,3.4,0.6,6.1,0.9,8.1c0.3,2,0.5,3.2,0.5,5c0,1.9-0.2,4.3-0.5,7c-0.3,2.7-0.7,5.5-0.4,10c0.3,4.4,1.3,10.4,3,18.1
	c1.6,7.7,3.9,17,5,25.9c1.1,8.9,1.1,17.3,0.7,23.6c-0.4,6.3-1.2,10.3-2.1,13.5c-0.9,3.2-1.8,5.5-1.5,9.3c0.3,3.9,1.7,9.3,2.9,14
	l1,3.7"/>
<path class="st2" d="M28.3,35.4c-1.7,0.5-2.6,0.9-2.6,1.3"/>
<path class="st2" d="M55.6,169.3c0.4-6.1,1.7-8.3,2.9-10.3l3.8-5.5c1.3-1.7,2.5-3.4,3.7-5.4c1.2-2,2.2-4.4,2.4-8
	c0.2-3.6-0.6-8.3-1.1-12c-0.5-3.6-0.7-6.2-0.9-8.6l-0.6-7.8l-1.2-10.5c-0.4-4-0.5-8.3,0-12.9c0.6-4.6,1.8-9.5,2.4-14.9
	c0.5-5.4,0.3-11.4-0.1-16c-0.4-4.6-1-7.7-1.7-10.2c-0.7-2.4-1.4-4.2-1.9-5.5c-0.5-1.3-0.9-2.2-1.7-2.7c-0.9-0.5-2.2-0.5-3.4,0.4"/>
<path class="st2" d="M38.2,38.2c-0.3-8.9-0.1-13.1,0.4-15.5c0.5-2.4,1.3-3.1,1.7-4.2c0.4-1,0.2-2.4-0.2-3.7
	c-0.5-1.3-1.4-2.5-2.9-3.4c-1.5-0.9-3.5-1.5-5-1.3c-1.4,0.3-2.2,1.4-2.6,2.9c-0.4,1.5-0.5,3.3-0.6,4.9l-0.2,4.4l-0.2,5.3
	c-0.2,1.9-0.4,3.9-0.4,6.2c0,2.3,0.4,5.1,0,6"/>
<path class="st2" d="M59.7,57.4c-3.1-3.3-3.2-4.7-3.2-5.9l0.4-3.7l0.5-3.6l0.5-2.7l0.3-2.3c0-0.9,0-2.1-0.3-3.4
	c-0.3-1.3-0.9-2.6-1.4-3.7c-0.5-1-1-1.7-1.5-2.3c-0.6-0.6-1.2-1.1-2.5-1.4c-1.3-0.3-3.1-0.4-4.5,0.9"/>
</svg>
