<?xml version="1.0" encoding="utf-8"?>
<!-- Generator: Adobe Illustrator 25.0.0, SVG Export Plug-In . SVG Version: 6.00 Build 0)  -->
<svg version="1.1" id="Layer_1" xmlns="http://www.w3.org/2000/svg" xmlns:xlink="http://www.w3.org/1999/xlink" x="0px" y="0px"
	 viewBox="0 0 164.9 52.3" style="enable-background:new 0 0 164.9 52.3;" xml:space="preserve">
<style type="text/css">
	.st0{fill-opacity:0;stroke:#7FFF00;stroke-width:0.24;}
	.st1{font-family:'CourierNewPSMT';}
	.st2{font-size:11.2499px;}
	.st3{fill:#00FF00;}
	.st4{fill-opacity:0;stroke:#FFFFFF;stroke-width:0.24;}
</style>
<path class="st0" d="M45.1,26.2c0.2,1.8-1.7,4.1-5.2,5.8c-3.6,1.7-8.8,2.7-13.1,2.9c-4.4,0.2-9.7-0.4-13.3-1.7
	c-3.7-1.3-5.8-3.4-5.7-5.3c-0.2-1.8,1.7-4.1,5.2-5.8c3.6-1.7,8.8-2.7,13.1-2.9c4.4-0.2,9.7,0.4,13.3,1.7
	C43.1,22.3,45.1,24.4,45.1,26.2c0.2,1.8-1.7,4.1-5.2,5.8c-3.6,1.7-8.8,2.7-13.1,2.9c-4.4,0.2-9.7-0.4-13.3-1.7
	c-3.7-1.3-5.8-3.4-5.7-5.3c-0.2-1.8,1.7-4.1,5.2-5.8c3.6-1.7,8.8-2.7,13.1-2.9c4.4-0.2,9.7,0.4,13.3,1.7
	C43.1,22.3,45.1,24.4,45.1,26.2z"/>
<text transform="matrix(1 0 0 1 64.0358 21.8754)" class="st1 st2">TENNIS BALL</text>
<text transform="matrix(1 0 0 1 64.0358 32.2112)" class="st1 st2">CIRCUMFERENCE</text>
<text transform="matrix(1 0 0 1 64.0358 42.547)" class="st1 st2">APPROX. 20.5CM</text>
<text transform="matrix(1 0 0 1 64.0358 21.8754)" class="st3 st1 st2">TENNIS BALL</text>
<text transform="matrix(1 0 0 1 64.0358 32.2112)" class="st3 st1 st2">CIRCUMFERENCE</text>
<text transform="matrix(1 0 0 1 64.0358 42.547)" class="st3 st1 st2">APPROX. 20.5CM</text>
<path class="st4" d="M45.1,27c0.1-4.4-1.9-9.6-5.5-13.2c-3.6-3.6-8.9-5.6-13.2-5.5c-4.4-0.1-9.6,1.9-13.2,5.5
	C9.5,17.4,7.5,22.7,7.7,27c-0.1,4.4,1.9,9.6,5.5,13.2c3.6,3.6,8.9,5.6,13.2,5.5c4.4,0.1,9.6-1.9,13.2-5.5
	C43.3,36.6,45.2,31.4,45.1,27c0.1-4.4-1.9-9.6-5.5-13.2c-3.6-3.6-8.9-5.6-13.2-5.5c-4.4-0.1-9.6,1.9-13.2,5.5
	C9.5,17.4,7.5,22.7,7.7,27c-0.1,4.4,1.9,9.6,5.5,13.2c3.6,3.6,8.9,5.6,13.2,5.5c4.4,0.1,9.6-1.9,13.2-5.5
	C43.3,36.6,45.2,31.4,45.1,27z"/>
</svg>
